<?xml version="1.0" encoding="utf-8"?>
<!-- Generator: Adobe Illustrator 21.0.0, SVG Export Plug-In . SVG Version: 6.00 Build 0)  -->
<svg version="1.1" id="Layer_1" xmlns="http://www.w3.org/2000/svg" xmlns:xlink="http://www.w3.org/1999/xlink" x="0px" y="0px"
	 viewBox="0 0 500 500" style="enable-background:new 0 0 500 500;" xml:space="preserve">
<style type="text/css">
	.st0{fill-rule:evenodd;clip-rule:evenodd;fill:#EC145A;}
	.st1{fill-rule:evenodd;clip-rule:evenodd;fill:#404041;}
</style>
<path class="st0" d="M253.2,336.9c39.7,0,72.1-32.6,72.1-72.6c0-40-32.4-72.6-72.1-72.6c-39.7,0-72.1,32.6-72.1,72.6
	C181.1,304.2,213.5,336.9,253.2,336.9z"/>
<path class="st1" d="M254.9,53c-21.2,0-41.6,3.2-60.9,9.1c-6,1.8-10.2,7.4-10.2,13.7v87c0,11.1,11.9,17.7,21.6,12.3
	c14.6-8.3,31.5-13,49.5-13c56,0,101.5,45.8,101.5,102.2c0,56.5-45.4,102.2-101.5,102.2c-54.9,0-99.7-44-101.4-98.9V128.7
	c0-7.9-6.4-14.3-14.3-14.3H59c-7.9,0-14.3,6.4-14.3,14.2l-0.5,142.1c0,113.1,95.8,204.8,210.6,204.8c114.7,0,209.7-94.6,209.7-211.3
	S370.7,53,254.9,53z"/>
</svg>
